<?xml version="1.0" encoding="UTF-8"?>
<!DOCTYPE svg PUBLIC "-//W3C//DTD SVG 1.1//EN" "http://www.w3.org/Graphics/SVG/1.1/DTD/svg11.dtd">
<!-- Creator: CorelDRAW 2020 (64-Bit) -->
<svg xmlns="http://www.w3.org/2000/svg" xml:space="preserve" width="46.4167mm" height="7.4918mm" version="1.1" style="shape-rendering:geometricPrecision; text-rendering:geometricPrecision; image-rendering:optimizeQuality; fill-rule:evenodd; clip-rule:evenodd"
viewBox="0 0 2329.27 375.95"
 xmlns:xlink="http://www.w3.org/1999/xlink"
 xmlns:xodm="http://www.corel.com/coreldraw/odm/2003">
 <defs>
  <style type="text/css">
   <![CDATA[
    .fil2 {fill:#FEFEFE}
    .fil0 {fill:#E32029}
    .fil1 {fill:#FEFEFE;fill-rule:nonzero}
   ]]>
  </style>
 </defs>
 <g id="Layer_x0020_1">
  <metadata id="CorelCorpID_0Corel-Layer"/>
  <path class="fil0" d="M1547.73 300.14c-0.5,-0.51 -1.13,-0.83 -1.91,-0.96 -12.36,-2.09 -27.09,-3.13 -44.17,-3.13 -146.37,0 -432.07,82.09 -430.84,62.36 7.82,-125.89 -171.93,-140.85 -282.75,-98.06 -4.02,1.56 -1.26,6.67 2.82,4.98 93.04,-38.49 279.93,-30.4 264.13,101.99 -0.76,6.35 6.14,9.39 12.6,8.47 145.93,-20.65 283.01,-70.3 434.04,-74.25 16.62,-0.43 30.91,1.01 42.84,3.03 0.22,0.04 0.44,0.06 0.67,0.06 0.92,0 1.71,-0.27 2.35,-0.8 0.65,-0.54 0.97,-1.19 0.97,-1.95 0,-0.65 -0.25,-1.23 -0.75,-1.74z"/>
  <path class="fil0" d="M1368.12 92.11c8.23,12.33 13.88,28.71 -4,38.29 -54.88,29.4 -192.54,-14.77 -227.9,-13.01 -22.52,1.12 -49.3,9.34 -33.25,37.69 9.36,16.51 113.61,62.89 221.81,96.02 17.12,5.24 29.91,-39.55 185.67,-37.74 0.92,0.01 1.7,-0.27 2.35,-0.8 0.65,-0.54 0.97,-1.18 0.97,-1.95 0,-0.76 -0.33,-1.41 -0.97,-1.94 -0.65,-0.54 -1.44,-0.78 -2.35,-0.8 -170.64,-5.05 -162.44,41.46 -187.84,33.47 -74.31,-23.38 -200,-71.07 -210.06,-93.98 -9.59,-21.85 14.94,-23.79 25.53,-23.52 61.18,1.57 165.23,40.78 230.49,14.25 17.52,-7.13 19.38,-27.49 9.69,-46.49 73.06,-3.62 138.7,-4.67 190.77,-5.79 4.44,-0.1 4.45,-5.49 0.02,-5.5l-17.45 -0.03c-54.69,-0.1 -114.88,0.54 -178.23,3.23 -4.59,-6.49 -10.56,-12.55 -17.72,-17.51 -53.94,-37.38 -124.86,-55.73 -188.31,-63.41 -5.65,-0.68 -12.91,-0.64 -17.74,7.12 -9.66,15.52 -24.03,30.91 -25.6,28.68 -70.46,-100.36 -206.99,22.58 -71.75,67.57 4.12,1.36 7.4,-0.58 3.37,-2.12 -112.18,-42.87 -3.83,-154.9 62.12,-57.47 1.24,1.84 5.86,2.9 7.34,1.18 1.88,-2.16 25.78,-25.57 35.27,-36.22 8.57,-9.61 144.4,19.61 194.1,64.67 0.95,0.86 4.03,3.81 7.57,8 -178.47,8.23 -380.75,33.18 -555.88,103.68 -11.65,4.69 -15.9,1.75 -11.93,-3.88 57.69,-81.99 129.17,-99.46 179.24,-116.27 4.11,-1.38 2.37,-6.18 -1.93,-5.26 -101.44,21.73 -177.99,70.98 -198.29,141.18 -2.43,8.41 2.64,9.94 9.73,6.63 176.6,-82.39 402.74,-108.43 585.18,-117.99z"/>
  <path class="fil1" d="M118.42 180.7l4.08 -12 -45.73 0 -2.57 6.86 -17.74 50.3 -9.01 26.29 -47.44 0 7.98 -21.43 21.85 -63.73 6.3 -18.29 157.46 0c37.15,0 58.6,6.66 64.35,20l-19.89 62.87 -6.01 20.57 -49.16 0 25.62 -76.59c-2.66,-4.57 -7.71,-6.86 -15.14,-6.86l-31.43 0 -2.94 12 -22.4 71.44 -42.3 0 24.11 -71.44zm268.71 -12l57.73 0 7.47 -19.72 -125.74 0c-27.65,-0.57 -42.84,6.19 -45.56,20.29l-21 61.44 -7.98 21.43 47.44 0 9.01 -26.29 17.74 -50.3c3.62,-4.57 10.58,-6.86 20.87,-6.86l40 0zm212.53 41.73l-118.89 0c-15.62,0 -21,-7.24 -16.14,-21.72l7.3 -21.72c2.15,-12.57 17.02,-18.67 44.6,-18.29l149.75 0 -5.08 20 -124.02 0c-10.29,0 -17.25,2.29 -20.87,6.86l-5.51 14.29 113.74 0c18.29,0 25.66,6.96 22.11,20.86l-5.33 20.87c-3.55,13.91 -23.33,20.86 -59.34,20.86l-139.86 -0.29 10.23 -20 128.71 0.29c5.88,-0.57 10.02,-2.77 12.39,-6.57 3.91,-6.86 5.99,-12 6.23,-15.43zm192.99 -41.73l-57.15 0 -3.72 6.86 -17.75 50.3c2.05,4.95 8.05,7.24 18,6.86l48.01 0 -12.15 19.43 -50.87 0c-30.1,0 -47.26,-7.15 -51.47,-21.43l21.86 -63.73 20.6 -59.44 45.73 0 -13.06 41.44 107.74 0 -6.33 19.72 -49.44 0zm205.96 41.73l-28.01 0 -68.59 0 -5.66 15.43c1.76,4.19 7.69,6.29 17.79,6.29l64.69 0.29c5.5,-0.57 10.02,-2.77 13.54,-6.57l6.23 -15.43zm-4.85 -20.58l10.29 0 5.51 -14.29c-2.67,-4.57 -7.71,-6.86 -15.14,-6.86l-126.32 0 6.23 -20 120.32 0c37.15,0 58.6,6.66 64.36,20l-19.89 62.87c-3.55,13.91 -23.33,20.86 -59.34,20.86l-79.45 0c-30.86,0 -48.18,-5.05 -51.96,-15.14 -0.72,-1.91 -0.87,-4.1 -0.47,-6.57l10.98 -31.72c2.29,-6.1 8.96,-9.15 20.01,-9.15l114.88 0zm151.88 42.3l40 0c10.1,0 17.05,-2.29 20.87,-6.86l17.74 -50.3c-1.76,-4.19 -7.69,-6.29 -17.78,-6.29l-64.59 0c-5.96,0.38 -10.12,2.48 -12.51,6.29l-18.32 50.3c2.47,4.57 7.52,6.86 15.14,6.86l19.44 0zm-84.59 0l19.89 -62.87c3.55,-13.91 23.34,-20.86 59.35,-20.86l96.2 -0.29 15.66 -40.58 42.87 0 -22.86 62.59 -21.85 63.73c-2.15,12.58 -17.02,18.67 -44.59,18.29l-80.3 0c-37.15,0 -58.61,-6.67 -64.36,-20zm381.9 -53.16c5.46,-7.81 1.7,-11.24 -11.28,-10.29l-65.73 0c-10.29,0 -17.24,2.29 -20.87,6.86l-7.23 14.29 30.86 0 70.3 0 4.04 -10.57 -0.11 -0.29zm-101.18 32.01l-9.15 0 -5.29 14.86c1.76,4.19 7.69,6.29 17.78,6.29l126.32 0 -6.69 20.29 -133.46 0c-30.86,0 -48.18,-5.05 -51.96,-15.14 -0.72,-1.91 -0.87,-4.1 -0.47,-6.57l21.86 -63.73c2.15,-12.57 17.01,-18.67 44.59,-18.29l127.46 0c15.24,0 20.98,6.66 17.21,20l-6.66 28.01c-3.67,9.52 -12.94,14.29 -27.8,14.29l-113.74 0zm302.14 -0.57l-118.89 0c-15.62,0 -21,-7.24 -16.13,-21.72l7.3 -21.72c2.15,-12.57 17.01,-18.67 44.59,-18.29l149.75 0 -5.08 20 -124.02 0c-10.29,0 -17.24,2.29 -20.87,6.86l-5.51 14.29 113.74 0c18.29,0 25.66,6.96 22.11,20.86l-5.33 20.87c-3.55,13.91 -23.33,20.86 -59.34,20.86l-139.85 -0.29 10.23 -20 128.71 0.29c5.89,-0.57 10.02,-2.77 12.4,-6.57 3.91,-6.86 5.98,-12 6.22,-15.43zm105.37 41.72l-46.87 0 35.56 -103.45 47.44 0 -36.13 103.45zm156.79 -83.45l19.44 0c7.43,0 12.48,2.29 15.14,6.86l-16.53 56.58 -14.18 0.29 -64.69 -0.29c-10.1,0 -16.03,-2.1 -17.78,-6.29l17.74 -50.3c3.62,-4.57 10.57,-6.86 20.87,-6.86l40 0zm84.02 0c-5.76,-13.34 -27.21,-20 -64.36,-20l-80.31 0c-27.57,-0.38 -42.44,5.72 -44.59,18.29l-21.86 63.73c-0.41,2.47 -0.25,4.67 0.47,6.57 3.78,10.1 21.1,15.14 51.96,15.14l86.49 -0.29 -4.44 12.58c-4.43,6.48 -13.62,9.91 -27.58,10.29l-121.74 0 -7.8 18.86 160.04 0c20.96,0 33.94,-7.05 38.95,-21.15l7.51 -21.15 7.16 -20.57 20.1 -62.3zm131.46 0l-58.87 0 -2 6.86 -17.74 50.3 -9.01 26.29 -47.44 0 7.97 -21.43 21.86 -63.73 6.3 -18.29 118.6 0c37.15,0 58.6,6.66 64.36,20l-19.89 62.87 -6.01 20.57 -49.16 0 25.62 -76.59c-2.66,-4.57 -7.71,-6.86 -15.14,-6.86l-19.44 0z"/>
  <polygon class="fil2" points="2211.12,245.36 2195.2,224.63 2215.49,161.75 2207.92,153.56 2197.98,148.18 2185.18,144.88 2170.49,142.96 2118.99,142.02 2100.24,125.52 2227.18,102.92 2320.22,29.4 2329.27,39.8 2250.33,123.88 "/>
 </g>
</svg>
